<svg width="86" height="26" viewBox="0 0 86 26" fill="none" xmlns="http://www.w3.org/2000/svg">
<path d="M1.83736 17.5H0.323153L3.7255 8.04545H5.37358L8.77592 17.5H7.26172L4.58878 9.76278H4.51492L1.83736 17.5ZM2.09126 13.7976H7.0032V14.9979H2.09126V13.7976ZM10.0305 17.5V10.4091H11.4108V13.3821H12.0756L14.4161 10.4091H16.1242L13.3774 13.8576L16.1565 17.5H14.4438L12.3064 14.6655H11.4108V17.5H10.0305ZM17.2287 17.5V10.4091H18.609V13.3821H19.2738L21.6143 10.4091H23.3224L20.5756 13.8576L23.3548 17.5H21.642L19.5046 14.6655H18.609V17.5H17.2287ZM26.4905 17.657C26.0412 17.657 25.6349 17.5739 25.2718 17.4077C24.9086 17.2384 24.6208 16.9937 24.4085 16.6737C24.1992 16.3536 24.0945 15.9612 24.0945 15.4964C24.0945 15.0964 24.1715 14.767 24.3254 14.5085C24.4793 14.25 24.687 14.0453 24.9486 13.8945C25.2102 13.7437 25.5026 13.6299 25.8257 13.5529C26.1489 13.476 26.4782 13.4175 26.8137 13.3775C27.2384 13.3282 27.5831 13.2882 27.8477 13.2575C28.1124 13.2236 28.3048 13.1697 28.4248 13.0959C28.5448 13.022 28.6048 12.902 28.6048 12.7358V12.7035C28.6048 12.3003 28.491 11.9879 28.2632 11.7663C28.0386 11.5447 27.7031 11.4339 27.2568 11.4339C26.7921 11.4339 26.4259 11.537 26.1581 11.7433C25.8934 11.9464 25.7103 12.1726 25.6088 12.4219L24.3115 12.1264C24.4654 11.6955 24.6901 11.3478 24.9855 11.0831C25.2841 10.8153 25.6272 10.6214 26.015 10.5014C26.4028 10.3783 26.8106 10.3168 27.2384 10.3168C27.5215 10.3168 27.8216 10.3506 28.1386 10.4183C28.4587 10.483 28.7572 10.603 29.0342 10.7784C29.3142 10.9538 29.5435 11.2047 29.722 11.5309C29.9005 11.854 29.9898 12.2741 29.9898 12.7912V17.5H28.6418V16.5305H28.5864C28.4971 16.709 28.3633 16.8845 28.1847 17.0568C28.0062 17.2292 27.777 17.3723 27.4969 17.4862C27.2168 17.6 26.8814 17.657 26.4905 17.657ZM26.7906 16.549C27.1722 16.549 27.4984 16.4736 27.7693 16.3228C28.0432 16.172 28.2509 15.975 28.3925 15.7319C28.5371 15.4857 28.6095 15.2225 28.6095 14.9425V14.0284C28.5602 14.0777 28.4648 14.1238 28.3232 14.1669C28.1847 14.2069 28.0262 14.2423 27.8477 14.2731C27.6692 14.3008 27.4954 14.3269 27.3261 14.3516C27.1568 14.3731 27.0152 14.3916 26.9014 14.407C26.6336 14.4408 26.3889 14.4978 26.1673 14.5778C25.9488 14.6578 25.7734 14.7732 25.6411 14.924C25.5118 15.0717 25.4472 15.2687 25.4472 15.5149C25.4472 15.8565 25.5734 16.1151 25.8257 16.2905C26.0781 16.4628 26.3997 16.549 26.7906 16.549ZM32.4469 20.1591C32.2407 20.1591 32.053 20.1422 31.8837 20.1083C31.7144 20.0775 31.5882 20.0437 31.5051 20.0067L31.8375 18.8757C32.0899 18.9434 32.3146 18.9727 32.5115 18.9634C32.7085 18.9542 32.8824 18.8803 33.0332 18.7418C33.1871 18.6033 33.3225 18.3771 33.4395 18.0632L33.6103 17.5923L31.0158 10.4091H32.4931L34.2889 15.9119H34.3627L36.1586 10.4091H37.6404L34.7182 18.4464C34.5828 18.8157 34.4105 19.1281 34.2012 19.3835C33.9919 19.642 33.7426 19.8359 33.4533 19.9652C33.164 20.0945 32.8285 20.1591 32.4469 20.1591ZM43.7434 13.359V14.5547H39.9025V13.359H43.7434ZM40.2903 10.4091V17.5H38.9377V10.4091H40.2903ZM44.7083 10.4091V17.5H43.3603V10.4091H44.7083ZM45.6754 11.6001V10.4091H51.6584V11.6001H49.3455V17.5H47.9975V11.6001H45.6754Z" fill="black"/>
<rect x="60" width="26" height="26" rx="13" fill="#F9F9F9"/>
<path fill-rule="evenodd" clip-rule="evenodd" d="M74.4299 14.9678C75.7917 14.4057 76.7501 13.0648 76.7501 11.5C76.7501 9.42893 75.0712 7.75 73.0001 7.75C70.929 7.75 69.2501 9.42893 69.2501 11.5C69.2501 13.0647 70.2085 14.4056 71.5702 14.9677C70.1756 15.1999 68.8926 15.7659 67.8083 16.5806L69.1899 18.4194C70.2512 17.6221 71.5687 17.15 72.9999 17.15C74.431 17.15 75.7485 17.6221 76.8098 18.4194L78.1914 16.5806C77.1072 15.766 75.8244 15.2 74.4299 14.9678Z" fill="black"/>
</svg>
